<svg id="Capa_1" enable-background="new 0 0 512 512" height="512" viewBox="0 0 512 512" width="512" xmlns="http://www.w3.org/2000/svg"><g><path d="m91 15c0-8.284-6.716-15-15-15s-15 6.716-15 15v17h30z"/><path d="m181 15c0-8.284-6.716-15-15-15s-15 6.716-15 15v17h30z"/><path d="m271 15c0-8.284-6.716-15-15-15s-15 6.716-15 15v17h30z"/><path d="m361 15c0-8.284-6.716-15-15-15s-15 6.716-15 15v17h30z"/><path d="m451 15c0-8.284-6.716-15-15-15s-15 6.716-15 15v17h30z"/><path d="m361 381h30v30h-30z"/><path d="m241 381h30v30h-30z"/><path d="m121 262h30v30h-30z"/><path d="m497 32h-46v45c0 8.284-6.716 15-15 15s-15-6.716-15-15v-45h-60v45c0 8.284-6.716 15-15 15s-15-6.716-15-15v-45h-60v45c0 8.284-6.716 15-15 15s-15-6.716-15-15v-45h-60v45c0 8.284-6.716 15-15 15s-15-6.716-15-15v-45h-60v45c0 8.284-6.716 15-15 15s-15-6.716-15-15v-45h-46c-8.284 0-15 6.716-15 15v95h512v-95c0-8.284-6.716-15-15-15z"/><path d="m241 262h30v30h-30z"/><path d="m361 262h30v30h-30z"/><path d="m0 497c0 8.284 6.716 15 15 15h482c8.284 0 15-6.716 15-15v-325h-512zm331-250c0-8.284 6.716-15 15-15h60c8.284 0 15 6.716 15 15v60c0 8.284-6.716 15-15 15h-60c-8.284 0-15-6.716-15-15zm0 119c0-8.284 6.716-15 15-15h60c8.284 0 15 6.716 15 15v60c0 8.284-6.716 15-15 15h-60c-8.284 0-15-6.716-15-15zm-120-119c0-8.284 6.716-15 15-15h60c8.284 0 15 6.716 15 15v60c0 8.284-6.716 15-15 15h-60c-8.284 0-15-6.716-15-15zm0 119c0-8.284 6.716-15 15-15h60c8.284 0 15 6.716 15 15v60c0 8.284-6.716 15-15 15h-60c-8.284 0-15-6.716-15-15zm-120-119c0-8.284 6.716-15 15-15h60c8.284 0 15 6.716 15 15v60c0 8.284-6.716 15-15 15h-60c-8.284 0-15-6.716-15-15zm3.401 153.088c5.253-6.405 14.704-7.342 21.11-2.087l8.352 6.849 30.498-37.513c5.226-6.426 14.673-7.402 21.101-2.176s7.402 14.673 2.176 21.102l-40 49.2c-5.228 6.431-14.712 7.416-21.15 2.136l-20-16.4c-6.405-5.254-7.34-14.705-2.087-21.111z"/></g></svg>